HIERARCHY
ROOT Hips
{
	OFFSET 0.000000 0.000000 0.000000 
	CHANNELS 6 Xposition Yposition Zposition Zrotation Yrotation Xrotation
	JOINT LeftUpLeg
	{
		OFFSET 1.363060 -1.794630 0.839290 
		CHANNELS 3 Zrotation Yrotation Xrotation
		JOINT LeftLeg
		{
			OFFSET 2.448110 -6.726130 0.000000 
			CHANNELS 3 Zrotation Yrotation Xrotation
			JOINT LeftFoot
			{
				OFFSET 2.562200 -7.039590 0.000000 
				CHANNELS 3 Zrotation Yrotation Xrotation
				JOINT LeftToeBase
				{
					OFFSET 0.157640 -0.433110 2.322550 
					CHANNELS 3 Zrotation Yrotation Xrotation
					End Site
					{
						OFFSET 0.000000 0.000000 0.000000 
					}
				}
			}
		}
	}
	JOINT RightUpLeg
	{
		OFFSET -1.305520 -1.794630 0.839290 
		CHANNELS 3 Zrotation Yrotation Xrotation
		JOINT RightLeg
		{
			OFFSET -2.542530 -6.985550 0.000000 
			CHANNELS 3 Zrotation Yrotation Xrotation
			JOINT RightFoot
			{
				OFFSET -2.568260 -7.056230 0.000000 
				CHANNELS 3 Zrotation Yrotation Xrotation
				JOINT RightToeBase
				{
					OFFSET -0.164730 -0.452590 2.363150 
					CHANNELS 3 Zrotation Yrotation Xrotation
					End Site
					{
						OFFSET 0.000000 0.000000 0.000000 
					}
				}
			}
		}
	}
	JOINT Spine
	{
		OFFSET 0.028270 2.035590 -0.193380 
		CHANNELS 3 Zrotation Yrotation Xrotation
		JOINT Spine1
		{
			OFFSET 0.056720 2.048850 -0.042750 
			CHANNELS 3 Zrotation Yrotation Xrotation
			JOINT Neck1
			{
				OFFSET -0.054170 1.746240 0.172020 
				CHANNELS 3 Zrotation Yrotation Xrotation
				JOINT Head
				{
					OFFSET 0.104070 1.761360 -0.123970 
					CHANNELS 3 Zrotation Yrotation Xrotation
					End Site
					{
						OFFSET 0.000000 0.000000 0.000000 
					}
				}
			}
			JOINT LeftArm
			{
				OFFSET 3.362410 1.200890 -0.311210 
				CHANNELS 3 Zrotation Yrotation Xrotation
				JOINT LeftForeArm
				{
					OFFSET 4.983000 -0.000000 -0.000000 
					CHANNELS 3 Zrotation Yrotation Xrotation
					JOINT LeftHand
					{
						OFFSET 3.483560 -0.000000 -0.000000 
						CHANNELS 3 Zrotation Yrotation Xrotation
						JOINT LeftHandIndex1
						{
							OFFSET 0.715260 -0.000000 -0.000000 
							CHANNELS 3 Zrotation Yrotation Xrotation
							End Site
							{
								OFFSET 0.000000 0.000000 0.000000 
							}
						}
					}
				}
			}
			JOINT RightArm
			{
				OFFSET -3.136600 1.374050 -0.404650 
				CHANNELS 3 Zrotation Yrotation Xrotation
				JOINT RightForeArm
				{
					OFFSET -5.241900 -0.000000 -0.000000 
					CHANNELS 3 Zrotation Yrotation Xrotation
					JOINT RightHand
					{
						OFFSET -3.444170 -0.000000 -0.000000 
						CHANNELS 3 Zrotation Yrotation Xrotation
						JOINT RightHandIndex1
						{
							OFFSET -0.622530 -0.000000 -0.000000 
							CHANNELS 3 Zrotation Yrotation Xrotation
							End Site
							{
								OFFSET 0.000000 0.000000 0.000000 
							}
						}
					}
				}
			}
		}
	}
}
MOTION
Frames: 6
Frame Time: 0.041667
3.892003 17.927544 4.235493 -4.958174 -7.749617 26.537125 -19.570529 -15.285862 -21.645710 -0.513674 6.193928 17.497294 -2.454706 11.676038 -5.869307 0.255100 3.249400 8.974000 1.894449 13.025432 -5.939630 0.014337 -3.301176 7.613689 0.154519 -19.750963 32.543170 -4.031500 12.202200 -36.451100 10.262972 1.904451 -27.675375 1.140909 -0.125937 -8.648894 5.091772 23.253987 10.503576 1.013900 12.098500 6.606500 34.956874 3.159255 -29.314320 13.361455 -24.007899 -3.087073 1.123359 -0.223616 -35.358278 -7.125000 0.000000 0.000000 -13.233491 -36.718385 -25.982656 -139.484871 45.219759 -100.435906 1.267540 -0.904056 -60.223572 7.125000 0.000000 0.000000 
3.892613 17.928562 4.234067 -5.025267 -7.711180 26.582967 -19.475285 -15.292112 -21.727288 -0.506320 6.218375 17.553893 -2.441634 11.629242 -5.842827 0.254500 3.246200 8.964900 1.982914 12.997650 -5.928888 0.024728 -3.262307 7.502840 0.147611 -19.801534 32.618674 -4.020400 12.187500 -36.398500 10.271376 1.922201 -27.740331 1.127177 -0.123112 -8.726359 5.097072 23.268759 10.490875 1.004200 12.108600 6.600200 34.909596 3.031216 -29.607525 13.345951 -23.955769 -3.075394 1.127889 -0.231008 -35.163902 -7.125000 0.000000 0.000000 -13.243774 -36.687753 -25.873329 -139.502507 45.213036 -100.449069 1.266499 -0.900669 -60.172931 7.125000 0.000000 0.000000 
3.893224 17.929987 4.233253 -5.048116 -7.699034 26.617269 -19.444113 -15.306867 -21.781902 -0.501313 6.234765 17.591331 -2.443766 11.638261 -5.825778 0.235200 3.121200 8.616400 2.000531 12.953470 -5.880370 0.040224 -3.197229 7.319468 0.132487 -19.857551 32.737514 -4.042000 12.216000 -36.500500 10.288786 1.925732 -27.653828 1.098512 -0.121406 -8.583530 5.070066 23.282443 10.451347 1.011800 12.109100 6.605000 34.933504 2.976386 -30.164250 13.290706 -23.860989 -3.050661 1.122682 -0.240746 -34.792260 -7.125000 0.000000 0.000000 -13.158149 -36.695565 -25.993795 -139.467888 45.217199 -100.424988 1.261324 -0.903915 -60.227255 7.125000 0.000000 0.000000 
3.896686 17.927340 4.241397 -5.024183 -7.702540 26.562965 -19.504433 -15.369674 -21.687286 -0.495391 6.245736 17.635024 -2.466637 11.726030 -5.927194 0.225900 3.059500 8.444400 1.958753 12.916373 -5.755815 0.046699 -3.165839 7.233319 0.128102 -19.871353 32.773840 -4.080700 12.267000 -36.683000 10.278326 1.903781 -27.626304 1.043278 -0.137180 -8.442643 5.071653 23.361725 10.303413 0.985500 12.142700 6.502900 34.879826 2.994921 -30.044196 13.313484 -23.888449 -3.057578 1.131885 -0.228407 -34.829800 -7.125000 0.000000 0.000000 -13.218041 -36.632435 -25.861934 -139.495533 45.212150 -100.437017 1.251983 -0.922297 -60.201689 7.125000 0.000000 0.000000 
3.899333 17.925100 4.244960 -5.029630 -7.716181 26.521067 -19.523966 -15.356183 -21.614535 -0.493302 6.247956 17.652126 -2.469859 11.740106 -5.992377 0.237900 3.138900 8.665600 1.958605 12.943740 -5.694571 0.046867 -3.172459 7.248110 0.124737 -19.838372 32.751601 -4.100900 12.293500 -36.778300 10.208507 1.895938 -27.924155 1.004179 -0.154446 -8.636368 4.997308 23.480650 9.935327 0.817700 12.198800 6.214600 34.739636 2.980141 -28.961262 13.420321 -24.035661 -3.098353 1.150733 -0.195313 -35.390530 -7.125000 0.000000 0.000000 -13.512566 -36.477293 -25.205345 -139.671080 45.171190 -100.553726 1.249176 -0.930762 -60.172287 7.125000 0.000000 0.000000 
3.896889 17.926017 4.238547 -5.106391 -7.799258 26.500137 -19.454739 -15.311645 -21.636298 -0.493501 6.249956 17.653917 -2.475105 11.756652 -6.008000 0.247200 3.199500 8.834600 2.003739 13.050755 -5.716427 0.045690 -3.172194 7.258304 0.146472 -19.863342 32.698143 -4.081500 12.268100 -36.687200 10.266637 1.976838 -27.471836 0.981236 -0.094722 -8.351542 5.142587 23.375414 10.444023 1.039100 12.156600 6.581600 34.955741 3.035158 -30.028726 13.282826 -23.874122 -3.046098 1.159029 -0.208309 -34.841289 -7.125000 0.000000 0.000000 -13.150729 -36.862208 -25.893948 -139.635680 45.112392 -100.554684 1.248179 -0.930705 -60.203962 7.125000 0.000000 0.000000 
